<svg width="32" height="54" viewBox="0 0 32 54" fill="none" xmlns="http://www.w3.org/2000/svg">
<g filter="url(#filter0_i_48_237)">
<path d="M11.806 40L11.2687 35.68C10.9776 35.5675 10.7036 35.4325 10.4466 35.275C10.1896 35.1175 9.93746 34.9488 9.6903 34.7688L5.69403 36.4563L2 30.0438L5.45896 27.4113C5.43657 27.2538 5.42537 27.1021 5.42537 26.9563V26.0451C5.42537 25.8984 5.43657 25.7463 5.45896 25.5888L2 22.9563L5.69403 16.5438L9.6903 18.2313C9.93657 18.0513 10.194 17.8825 10.4627 17.725C10.7313 17.5675 11 17.4325 11.2687 17.32L11.806 13H19.194L19.7313 17.32C20.0224 17.4325 20.2969 17.5675 20.5548 17.725C20.8127 17.8825 21.0643 18.0513 21.3097 18.2313L25.306 16.5438L29 22.9563L25.541 25.5888C25.5634 25.7463 25.5746 25.8984 25.5746 26.0451V26.955C25.5746 27.1017 25.5522 27.2538 25.5075 27.4113L28.9664 30.0438L25.2724 36.4563L21.3097 34.7688C21.0634 34.9488 20.806 35.1175 20.5373 35.275C20.2687 35.4325 20 35.5675 19.7313 35.68L19.194 40H11.806ZM15.5672 31.225C16.8657 31.225 17.9739 30.7638 18.8918 29.8413C19.8097 28.9188 20.2687 27.805 20.2687 26.5C20.2687 25.195 19.8097 24.0813 18.8918 23.1588C17.9739 22.2363 16.8657 21.775 15.5672 21.775C14.2463 21.775 13.1322 22.2363 12.2251 23.1588C11.3179 24.0813 10.8648 25.195 10.8657 26.5C10.8666 27.805 11.3201 28.9188 12.2264 29.8413C13.1327 30.7638 14.2463 31.225 15.5672 31.225Z" fill="#01B19D"/>
</g>
<defs>
<filter id="filter0_i_48_237" x="0" y="3.05176e-05" width="32" height="58" filterUnits="userSpaceOnUse" color-interpolation-filters="sRGB">
<feFlood flood-opacity="0" result="BackgroundImageFix"/>
<feBlend mode="normal" in="SourceGraphic" in2="BackgroundImageFix" result="shape"/>
<feColorMatrix in="SourceAlpha" type="matrix" values="0 0 0 0 0 0 0 0 0 0 0 0 0 0 0 0 0 0 127 0" result="hardAlpha"/>
<feOffset dy="4"/>
<feGaussianBlur stdDeviation="2"/>
<feComposite in2="hardAlpha" operator="arithmetic" k2="-1" k3="1"/>
<feColorMatrix type="matrix" values="0 0 0 0 0 0 0 0 0 0 0 0 0 0 0 0 0 0 0.25 0"/>
<feBlend mode="normal" in2="shape" result="effect1_innerShadow_48_237"/>
</filter>
</defs>
</svg>
