<svg width="32" height="54" viewBox="0 0 32 54" fill="none" xmlns="http://www.w3.org/2000/svg">
<g filter="url(#filter0_i_41_8)">
<path d="M14.1741 34L13.8358 31.28C13.6526 31.2092 13.48 31.1242 13.3182 31.025C13.1564 30.9258 12.9977 30.8196 12.842 30.7063L10.3259 31.7688L8 27.7313L10.1779 26.0738C10.1638 25.9746 10.1567 25.8791 10.1567 25.7873V25.2136C10.1567 25.1212 10.1638 25.0254 10.1779 24.9262L8 23.2688L10.3259 19.2313L12.842 20.2938C12.9971 20.1804 13.1592 20.0742 13.3284 19.975C13.4975 19.8758 13.6667 19.7908 13.8358 19.72L14.1741 17H18.8259L19.1642 19.72C19.3474 19.7908 19.5202 19.8758 19.6826 19.975C19.845 20.0742 20.0035 20.1804 20.158 20.2938L22.6741 19.2313L25 23.2688L22.8221 24.9262C22.8362 25.0254 22.8433 25.1212 22.8433 25.2136V25.7865C22.8433 25.8788 22.8292 25.9746 22.801 26.0738L24.9789 27.7313L22.653 31.7688L20.158 30.7063C20.0029 30.8196 19.8408 30.9258 19.6716 31.025C19.5025 31.1242 19.3333 31.2092 19.1642 31.28L18.8259 34H14.1741ZM16.5423 28.475C17.3599 28.475 18.0576 28.1846 18.6356 27.6038C19.2135 27.0229 19.5025 26.3217 19.5025 25.5C19.5025 24.6783 19.2135 23.9771 18.6356 23.3962C18.0576 22.8154 17.3599 22.525 16.5423 22.525C15.7106 22.525 15.0092 22.8154 14.438 23.3962C13.8668 23.9771 13.5815 24.6783 13.5821 25.5C13.5827 26.3217 13.8682 27.0229 14.4389 27.6038C15.0095 28.1846 15.7106 28.475 16.5423 28.475Z" fill="#01B19D"/>
</g>
<defs>
<filter id="filter0_i_41_8" x="0" y="0" width="32" height="58" filterUnits="userSpaceOnUse" color-interpolation-filters="sRGB">
<feFlood flood-opacity="0" result="BackgroundImageFix"/>
<feBlend mode="normal" in="SourceGraphic" in2="BackgroundImageFix" result="shape"/>
<feColorMatrix in="SourceAlpha" type="matrix" values="0 0 0 0 0 0 0 0 0 0 0 0 0 0 0 0 0 0 127 0" result="hardAlpha"/>
<feOffset dy="4"/>
<feGaussianBlur stdDeviation="2"/>
<feComposite in2="hardAlpha" operator="arithmetic" k2="-1" k3="1"/>
<feColorMatrix type="matrix" values="0 0 0 0 0 0 0 0 0 0 0 0 0 0 0 0 0 0 0.25 0"/>
<feBlend mode="normal" in2="shape" result="effect1_innerShadow_41_8"/>
</filter>
</defs>
</svg>
