<svg width="32" height="54" viewBox="0 0 32 54" fill="none" xmlns="http://www.w3.org/2000/svg">
<g filter="url(#filter0_i_41_6)">
<path fill-rule="evenodd" clip-rule="evenodd" d="M22.9565 30.8214H22.6087V33.0714H22.9565C23.2333 33.0714 23.4987 33.173 23.6944 33.3539C23.8901 33.5347 24 33.78 24 34.0357C24 34.2915 23.8901 34.5367 23.6944 34.7176C23.4987 34.8984 23.2333 35 22.9565 35H11.3043C10.428 35 9.58751 34.6783 8.96782 34.1056C8.34814 33.533 8 32.7563 8 31.9464V19.8929C8 19.1256 8.32981 18.3898 8.91688 17.8473C9.50395 17.3048 10.3002 17 11.1304 17H20.8696C21.6998 17 22.496 17.3048 23.0831 17.8473C23.6702 18.3898 24 19.1256 24 19.8929V29.8571C24 30.1129 23.8901 30.3582 23.6944 30.539C23.4987 30.7198 23.2333 30.8214 22.9565 30.8214ZM11.3043 30.8214H20.5217V33.0714H11.3043C10.9815 33.0714 10.6718 32.9529 10.4435 32.7419C10.2152 32.5309 10.087 32.2448 10.087 31.9464C10.087 31.6481 10.2152 31.3619 10.4435 31.1509C10.6718 30.94 10.9815 30.8214 11.3043 30.8214ZM16.2379 20.6373C16.0614 20.6048 15.8792 20.6089 15.7045 20.6492C15.5299 20.6896 15.3671 20.7653 15.2279 20.8708C15.0887 20.9763 14.9766 21.109 14.8996 21.2594C14.8226 21.4098 14.7826 21.5741 14.7826 21.7404C14.7826 21.9535 14.691 22.1579 14.5279 22.3086C14.3648 22.4593 14.1437 22.544 13.913 22.544C13.6824 22.544 13.4612 22.4593 13.2982 22.3086C13.1351 22.1579 13.0435 21.9535 13.0435 21.7404C13.0435 21.2347 13.1953 20.739 13.4822 20.3083C13.769 19.8777 14.1795 19.5291 14.6681 19.3012C15.1566 19.0734 15.704 18.9754 16.2492 19.018C16.7945 19.0606 17.3163 19.2423 17.7564 19.5427C18.1966 19.8431 18.5379 20.2505 18.7424 20.7196C18.9468 21.1886 19.0064 21.7009 18.9145 22.1994C18.8226 22.6979 18.5827 23.163 18.2217 23.543C17.8607 23.923 17.3926 24.203 16.8696 24.3517C16.8638 24.5648 16.7667 24.7671 16.5996 24.9141C16.4325 25.061 16.2091 25.1406 15.9784 25.1354C15.7478 25.1301 15.5289 25.0403 15.3699 24.8859C15.2108 24.7315 15.1247 24.525 15.1304 24.3119V23.669C15.1304 23.2254 15.52 22.8654 16 22.8654C16.3019 22.8649 16.5928 22.7607 16.8163 22.5731C17.0398 22.3856 17.1798 22.1279 17.2093 21.8503C17.2388 21.5726 17.1556 21.2947 16.9758 21.0706C16.796 20.8464 16.534 20.692 16.2379 20.6373ZM16 28.4223C15.6771 28.4223 15.3675 28.3038 15.1392 28.0928C14.9109 27.8818 14.7826 27.5957 14.7826 27.2973C14.7826 26.9989 14.9109 26.7128 15.1392 26.5018C15.3675 26.2908 15.6771 26.1723 16 26.1723C16.3229 26.1723 16.6325 26.2908 16.8608 26.5018C17.0891 26.7128 17.2174 26.9989 17.2174 27.2973C17.2174 27.5957 17.0891 27.8818 16.8608 28.0928C16.6325 28.3038 16.3229 28.4223 16 28.4223Z" fill="#01B19D"/>
</g>
<defs>
<filter id="filter0_i_41_6" x="0" y="0" width="32" height="58" filterUnits="userSpaceOnUse" color-interpolation-filters="sRGB">
<feFlood flood-opacity="0" result="BackgroundImageFix"/>
<feBlend mode="normal" in="SourceGraphic" in2="BackgroundImageFix" result="shape"/>
<feColorMatrix in="SourceAlpha" type="matrix" values="0 0 0 0 0 0 0 0 0 0 0 0 0 0 0 0 0 0 127 0" result="hardAlpha"/>
<feOffset dy="4"/>
<feGaussianBlur stdDeviation="2"/>
<feComposite in2="hardAlpha" operator="arithmetic" k2="-1" k3="1"/>
<feColorMatrix type="matrix" values="0 0 0 0 0 0 0 0 0 0 0 0 0 0 0 0 0 0 0.25 0"/>
<feBlend mode="normal" in2="shape" result="effect1_innerShadow_41_6"/>
</filter>
</defs>
</svg>
