<svg width="32" height="54" viewBox="0 0 32 54" fill="none" xmlns="http://www.w3.org/2000/svg">
<g filter="url(#filter0_i_48_241)">
<path fill-rule="evenodd" clip-rule="evenodd" d="M26.3696 34.596H25.8261V38.1116H26.3696C26.802 38.1116 27.2167 38.2704 27.5225 38.5529C27.8282 38.8355 28 39.2187 28 39.6183C28 40.0179 27.8282 40.4012 27.5225 40.6837C27.2167 40.9663 26.802 41.125 26.3696 41.125H8.16304C6.79372 41.125 5.48048 40.6224 4.51222 39.7276C3.54396 38.8328 3 37.6192 3 36.3538V17.5201C3 16.3213 3.51533 15.1716 4.43263 14.3239C5.34993 13.4763 6.59405 13 7.8913 13H23.1087C24.406 13 25.6501 13.4763 26.5674 14.3239C27.4847 15.1716 28 16.3213 28 17.5201V33.0893C28 33.4889 27.8282 33.8722 27.5225 34.1547C27.2167 34.4373 26.802 34.596 26.3696 34.596ZM8.16304 34.596H22.5652V38.1116H8.16304C7.65856 38.1116 7.17473 37.9264 6.818 37.5968C6.46128 37.2671 6.26087 36.82 6.26087 36.3538C6.26087 35.8876 6.46128 35.4405 6.818 35.1109C7.17473 34.7812 7.65856 34.596 8.16304 34.596ZM15.8717 18.6833C15.5959 18.6325 15.3112 18.6389 15.0384 18.7019C14.7655 18.765 14.5111 18.8833 14.2936 19.0481C14.0761 19.213 13.9009 19.4204 13.7806 19.6553C13.6603 19.8903 13.5979 20.147 13.5978 20.4069C13.5978 20.74 13.4547 21.0593 13.1999 21.2948C12.9451 21.5302 12.5995 21.6625 12.2391 21.6625C11.8788 21.6625 11.5332 21.5302 11.2784 21.2948C11.0236 21.0593 10.8804 20.74 10.8804 20.4069C10.8804 19.6168 11.1177 18.8422 11.5659 18.1693C12.0141 17.4964 12.6555 16.9517 13.4188 16.5957C14.1822 16.2398 15.0374 16.0865 15.8894 16.1532C16.7414 16.2198 17.5566 16.5036 18.2444 16.973C18.9322 17.4424 19.4655 18.079 19.785 18.8119C20.1045 19.5448 20.1975 20.3452 20.0539 21.1241C19.9103 21.903 19.5355 22.6298 18.9714 23.2235C18.4073 23.8173 17.6759 24.2547 16.8587 24.4871C16.8498 24.8201 16.698 25.1362 16.4369 25.3658C16.1758 25.5954 15.8267 25.7198 15.4663 25.7115C15.106 25.7033 14.7639 25.5631 14.5154 25.3218C14.2669 25.0805 14.1324 24.7578 14.1413 24.4248V23.4203C14.1413 22.7273 14.75 22.1648 15.5 22.1648C15.9717 22.1639 16.4263 22.0012 16.7755 21.7081C17.1246 21.415 17.3435 21.0124 17.3895 20.5786C17.4356 20.1447 17.3056 19.7105 17.0247 19.3603C16.7438 19.0101 16.3343 18.7688 15.8717 18.6833ZM15.5 30.8474C14.9955 30.8474 14.5117 30.6622 14.155 30.3325C13.7982 30.0028 13.5978 29.5557 13.5978 29.0895C13.5978 28.6233 13.7982 28.1762 14.155 27.8466C14.5117 27.5169 14.9955 27.3317 15.5 27.3317C16.0045 27.3317 16.4883 27.5169 16.845 27.8466C17.2018 28.1762 17.4022 28.6233 17.4022 29.0895C17.4022 29.5557 17.2018 30.0028 16.845 30.3325C16.4883 30.6622 16.0045 30.8474 15.5 30.8474Z" fill="#01B19D"/>
</g>
<defs>
<filter id="filter0_i_48_241" x="0" y="3.05176e-05" width="32" height="58" filterUnits="userSpaceOnUse" color-interpolation-filters="sRGB">
<feFlood flood-opacity="0" result="BackgroundImageFix"/>
<feBlend mode="normal" in="SourceGraphic" in2="BackgroundImageFix" result="shape"/>
<feColorMatrix in="SourceAlpha" type="matrix" values="0 0 0 0 0 0 0 0 0 0 0 0 0 0 0 0 0 0 127 0" result="hardAlpha"/>
<feOffset dy="4"/>
<feGaussianBlur stdDeviation="2"/>
<feComposite in2="hardAlpha" operator="arithmetic" k2="-1" k3="1"/>
<feColorMatrix type="matrix" values="0 0 0 0 0 0 0 0 0 0 0 0 0 0 0 0 0 0 0.25 0"/>
<feBlend mode="normal" in2="shape" result="effect1_innerShadow_48_241"/>
</filter>
</defs>
</svg>
