<svg width="32" height="54" viewBox="0 0 32 54" fill="none" xmlns="http://www.w3.org/2000/svg">
<g filter="url(#filter0_i_48_245)">
<path d="M23.4545 14L17.7727 19.625V33.375L23.4545 27.75V14ZM9.25 17.75C7.03409 17.75 4.64773 18.25 3 19.625V37.95C3 38.2625 3.28409 38.575 3.56818 38.575C3.68182 38.575 3.73864 38.4875 3.85227 38.4875C5.38636 37.675 7.60227 37.125 9.25 37.125C11.4659 37.125 13.8523 37.625 15.5 39C17.0341 37.9375 19.8182 37.125 21.75 37.125C23.625 37.125 25.5568 37.5125 27.1477 38.45C27.2614 38.5125 27.3182 38.4875 27.4318 38.4875C27.7159 38.4875 28 38.175 28 37.8625V19.625C27.3182 19.0625 26.5795 18.6875 25.7273 18.375V35.25C24.4773 34.8125 23.1136 34.625 21.75 34.625C19.8182 34.625 17.0341 35.4375 15.5 36.5V19.625C13.8523 18.25 11.4659 17.75 9.25 17.75Z" fill="#01B19D"/>
</g>
<defs>
<filter id="filter0_i_48_245" x="0" y="3.05176e-05" width="32" height="58" filterUnits="userSpaceOnUse" color-interpolation-filters="sRGB">
<feFlood flood-opacity="0" result="BackgroundImageFix"/>
<feBlend mode="normal" in="SourceGraphic" in2="BackgroundImageFix" result="shape"/>
<feColorMatrix in="SourceAlpha" type="matrix" values="0 0 0 0 0 0 0 0 0 0 0 0 0 0 0 0 0 0 127 0" result="hardAlpha"/>
<feOffset dy="4"/>
<feGaussianBlur stdDeviation="2"/>
<feComposite in2="hardAlpha" operator="arithmetic" k2="-1" k3="1"/>
<feColorMatrix type="matrix" values="0 0 0 0 0 0 0 0 0 0 0 0 0 0 0 0 0 0 0.25 0"/>
<feBlend mode="normal" in2="shape" result="effect1_innerShadow_48_245"/>
</filter>
</defs>
</svg>
