<svg width="57" height="57" viewBox="0 0 57 57" fill="none" xmlns="http://www.w3.org/2000/svg">
<g filter="url(#filter0_d_45_1273)">
<path d="M18.8333 39C17.8208 39 17 38.1792 17 37.1667C17 36.1541 17.8208 35.3333 18.8333 35.3333H39.1667C40.1792 35.3333 41 36.1541 41 37.1667C41 38.1792 40.1792 39 39.1667 39H18.8333ZM18.8333 29.8333C17.8208 29.8333 17 29.0125 17 28C17 26.9875 17.8208 26.1667 18.8333 26.1667H39.1667C40.1792 26.1667 41 26.9875 41 28C41 29.0125 40.1792 29.8333 39.1667 29.8333H18.8333ZM18.8333 20.6667C17.8208 20.6667 17 19.8459 17 18.8333C17 17.8208 17.8208 17 18.8333 17H39.1667C40.1792 17 41 17.8208 41 18.8333C41 19.8459 40.1792 20.6667 39.1667 20.6667H18.8333Z" fill="white"/>
<path d="M16.5 37.1667C16.5 38.4553 17.5447 39.5 18.8333 39.5H39.1667C40.4553 39.5 41.5 38.4553 41.5 37.1667C41.5 35.878 40.4553 34.8333 39.1667 34.8333H18.8333C17.5447 34.8333 16.5 35.878 16.5 37.1667ZM16.5 28C16.5 29.2887 17.5447 30.3333 18.8333 30.3333H39.1667C40.4553 30.3333 41.5 29.2887 41.5 28C41.5 26.7113 40.4553 25.6667 39.1667 25.6667H18.8333C17.5447 25.6667 16.5 26.7113 16.5 28ZM16.5 18.8333C16.5 20.122 17.5447 21.1667 18.8333 21.1667H39.1667C40.4553 21.1667 41.5 20.122 41.5 18.8333C41.5 17.5447 40.4553 16.5 39.1667 16.5H18.8333C17.5447 16.5 16.5 17.5447 16.5 18.8333Z" stroke="white"/>
</g>
<defs>
<filter id="filter0_d_45_1273" x="12" y="16" width="34" height="32" filterUnits="userSpaceOnUse" color-interpolation-filters="sRGB">
<feFlood flood-opacity="0" result="BackgroundImageFix"/>
<feColorMatrix in="SourceAlpha" type="matrix" values="0 0 0 0 0 0 0 0 0 0 0 0 0 0 0 0 0 0 127 0" result="hardAlpha"/>
<feOffset dy="4"/>
<feGaussianBlur stdDeviation="2"/>
<feComposite in2="hardAlpha" operator="out"/>
<feColorMatrix type="matrix" values="0 0 0 0 0 0 0 0 0 0 0 0 0 0 0 0 0 0 0.25 0"/>
<feBlend mode="normal" in2="BackgroundImageFix" result="effect1_dropShadow_45_1273"/>
<feBlend mode="normal" in="SourceGraphic" in2="effect1_dropShadow_45_1273" result="shape"/>
</filter>
</defs>
</svg>
